<?xml version="1.0" standalone="no"?><!DOCTYPE svg PUBLIC "-//W3C//DTD SVG 1.1//EN" "http://www.w3.org/Graphics/SVG/1.1/DTD/svg11.dtd"><svg t="1709567608227" class="icon" viewBox="0 0 1024 1024" version="1.1" xmlns="http://www.w3.org/2000/svg" p-id="10931" xmlns:xlink="http://www.w3.org/1999/xlink" width="32" height="32"><path d="M640 368c0-70.576-57.424-128-128-128s-128 57.424-128 128 57.424 128 128 128 128-57.424 128-128z m-192 0c0-35.296 28.704-64 64-64s64 28.704 64 64-28.704 64-64 64-64-28.704-64-64z" p-id="10932" fill="#51d679"></path><path d="M511.456 1024c9.184 0 17.92-3.952 24-10.832 14.112-16 345.68-394.912 344.544-644.768C879.072 165.264 714 0 512 0 309.072 0 144 165.328 144 368.544c0 249.712 329.36 628.544 343.392 644.544 6.08 6.928 14.368 10.688 24.064 10.912zM512 64c166.864 0 303.232 136.688 304 304.688 0.864 189.184-228.496 481.952-304.464 573.68C435.936 850.576 208 557.952 208 368.544 208 200.624 344.368 64 512 64z" p-id="10933" fill="#51d679"></path></svg>