<?xml version="1.0" standalone="no"?><!DOCTYPE svg PUBLIC "-//W3C//DTD SVG 1.1//EN" "http://www.w3.org/Graphics/SVG/1.1/DTD/svg11.dtd"><svg t="1709567588465" class="icon" viewBox="0 0 1024 1024" version="1.1" xmlns="http://www.w3.org/2000/svg" p-id="9750" xmlns:xlink="http://www.w3.org/1999/xlink" width="32" height="32"><path d="M937.39008 86.60992c65.29024 65.29024-4.25984 358.87104-118.70208 473.2928l-73.99424 74.01472c28.0576 109.83424 13.2096 193.6384-44.56448 251.43296-21.68832 21.66784-73.50272 92.85632-192.3072 74.09664-44.31872-44.31872 58.92096-118.66112 0.14336-177.4592L242.01216 516.03456c-58.7776-58.7776-133.12 44.46208-177.4592 0.14336-18.75968-118.80448 52.4288-170.61888 74.09664-192.3072 57.79456-57.77408 141.59872-72.64256 251.43296-44.56448l73.99424-73.99424c114.44224-114.44224 408.02304-183.99232 473.31328-118.70208zM757.76 348.16a81.92 81.92 0 1 0 0-163.84 81.92 81.92 0 0 0 0 163.84zM289.71008 667.648l66.62144 66.64192c16.40448 16.40448 16.40448 43.008 0 59.43296l-46.81728 46.81728a210.08384 210.08384 0 0 1-118.84544 59.41248l-4.1984 0.6144a55.7056 55.7056 0 0 1-63.03744-63.03744l0.6144-4.1984a210.08384 210.08384 0 0 1 59.41248-118.84544l46.81728-46.81728a42.02496 42.02496 0 0 1 59.43296 0z" p-id="9751" fill="#51d679"></path></svg>