<?xml version="1.0" standalone="no"?><!DOCTYPE svg PUBLIC "-//W3C//DTD SVG 1.1//EN" "http://www.w3.org/Graphics/SVG/1.1/DTD/svg11.dtd"><svg t="1709568160189" class="icon" viewBox="0 0 1024 1024" version="1.1" xmlns="http://www.w3.org/2000/svg" p-id="15604" xmlns:xlink="http://www.w3.org/1999/xlink" width="32" height="32"><path d="M729.6 962.048c-139.776 0-253.44-113.664-253.44-253.44s113.664-253.44 253.44-253.44 253.44 113.664 253.44 253.44-113.664 253.44-253.44 253.44z m0-445.44c-105.984 0-192 86.016-192 192s86.016 192 192 192 192-86.016 192-192-86.016-192-192-192z" fill="#51d679" p-id="15605"></path><path d="M445.952 962.048H146.432c-50.688 0-92.16-41.472-92.16-92.16V158.72c0-50.688 41.472-92.16 92.16-92.16h555.52c50.688 0 92.16 41.472 92.16 92.16v162.816c0 16.896-13.824 30.72-30.72 30.72s-30.72-13.824-30.72-30.72V158.72c0-16.896-13.824-30.72-30.72-30.72H146.432c-16.896 0-30.72 13.824-30.72 30.72v710.656c0 16.896 13.824 30.72 30.72 30.72h299.52c16.896 0 30.72 13.824 30.72 30.72s-13.824 31.232-30.72 31.232z" fill="#51d679" p-id="15606"></path><path d="M640.512 286.208H217.088c-16.896 0-30.72-13.824-30.72-30.72s13.824-30.72 30.72-30.72h423.424c16.896 0 30.72 13.824 30.72 30.72s-13.824 30.72-30.72 30.72zM640.512 439.808H217.088c-16.896 0-30.72-13.824-30.72-30.72s13.824-30.72 30.72-30.72h423.424c16.896 0 30.72 13.824 30.72 30.72s-13.824 30.72-30.72 30.72zM292.352 598.528H217.088c-16.896 0-30.72-13.824-30.72-30.72s13.824-30.72 30.72-30.72h75.264c16.896 0 30.72 13.824 30.72 30.72s-13.824 30.72-30.72 30.72zM728.576 795.648c-9.728 0-19.456-3.584-27.136-10.24l-71.168-62.976c-12.8-11.264-13.824-30.72-2.56-43.52s30.72-13.824 43.52-2.56l55.808 49.152 74.24-87.04c10.752-12.8 30.208-14.336 43.52-3.584 12.8 10.752 14.336 30.208 3.584 43.52l-87.552 102.912c-7.168 8.192-16.896 13.312-28.16 14.336h-4.096z" fill="#51d679" p-id="15607"></path></svg>